<?xml version="1.0" standalone="no"?><!DOCTYPE svg PUBLIC "-//W3C//DTD SVG 1.1//EN" "http://www.w3.org/Graphics/SVG/1.1/DTD/svg11.dtd"><svg t="1597563143826" class="icon" viewBox="0 0 1024 1024" version="1.1" xmlns="http://www.w3.org/2000/svg" p-id="2361" xmlns:xlink="http://www.w3.org/1999/xlink" width="200" height="200"><defs><style type="text/css"></style></defs><path d="M596.2752 385.28L360.96 620.5952A102.4 102.4 0 1 0 505.856 765.44l343.9104-343.9616a179.2 179.2 0 0 0-253.44-253.44l-380.1088 380.16a256 256 0 0 0 361.984 362.0352l307.7632-307.712a25.6 25.6 0 0 0-36.1984-36.1984l-307.712 307.712a204.8 204.8 0 1 1-289.6384-289.6384l380.16-380.1088a128 128 0 1 1 180.992 180.992l-343.9104 343.9616a51.2 51.2 0 0 1-72.448-72.448l235.3664-235.3152a25.6 25.6 0 1 0-36.2496-36.1984z" fill="#999999" p-id="2362"></path></svg>