<?xml version="1.0" standalone="no"?><!DOCTYPE svg PUBLIC "-//W3C//DTD SVG 1.1//EN" "http://www.w3.org/Graphics/SVG/1.1/DTD/svg11.dtd"><svg t="1597562769006" class="icon" viewBox="0 0 1024 1024" version="1.1" xmlns="http://www.w3.org/2000/svg" p-id="1878" xmlns:xlink="http://www.w3.org/1999/xlink" width="200" height="200"><defs><style type="text/css"></style></defs><path d="M597.333333 42.666667a85.333333 85.333333 0 0 1 85.333334 85.333333v85.333333h256a42.666667 42.666667 0 0 1 0 85.333334h-88.106667l-38.656 580.266666a64 64 0 0 1-57.984 59.477334l-5.888 0.256H275.925333a64 64 0 0 1-63.189333-53.76l-0.682667-5.845334L171.989333 298.666667H85.333333a42.666667 42.666667 0 1 1 0-85.333334h256V128a85.333333 85.333333 0 0 1 85.333334-85.333333z m167.722667 256H257.493333l38.314667 554.666666h432.256l36.992-554.666666zM426.666667 384a42.666667 42.666667 0 0 1 42.666666 42.666667v298.666666a42.666667 42.666667 0 0 1-85.333333 0v-298.666666a42.666667 42.666667 0 0 1 42.666667-42.666667z m170.666666 0a42.666667 42.666667 0 0 1 42.666667 42.666667v298.666666a42.666667 42.666667 0 0 1-85.333333 0v-298.666666a42.666667 42.666667 0 0 1 42.666666-42.666667z m0-256h-170.666666v85.333333h170.666666V128z" p-id="1879" fill="#ffffff"></path></svg>