<?xml version="1.0" encoding="UTF-8"?>
<svg width="14px" height="11px" viewBox="0 0 14 11" version="1.1" xmlns="http://www.w3.org/2000/svg" xmlns:xlink="http://www.w3.org/1999/xlink">
    <!-- Generator: Sketch 59 (86127) - https://sketch.com -->
    <title>形状备份 2</title>
    <desc>Created with Sketch.</desc>
    <g id="页面-1" stroke="none" stroke-width="1" fill="none" fill-rule="evenodd">
        <path d="M14,1.24809039 C14,1.65945258 13.87225,2.05330999 13.61675,2.42791216 C13.36125,2.80251432 13.04275,3.12285169 12.663,3.38892425 C10.70475,4.74904519 9.48675,5.59452578 9.00725,5.92886696 C8.95475,5.96562699 8.8445,6.04614895 8.67475,6.16693189 C8.505,6.28946531 8.365,6.38924252 8.253,6.46451305 C8.141,6.53978358 8.0045,6.62380649 7.847,6.72008275 C7.68775,6.81460853 7.53725,6.88462763 7.399,6.93014004 C7.25725,6.97740293 7.12775,7.00015913 7.00875,7.00015913 L6.99125,7.00015913 C6.8705,7.00015913 6.741,6.97740293 6.601,6.93014004 C6.45925,6.88287715 6.3105,6.81285805 6.153,6.72008275 C5.99375,6.62555697 5.859,6.54153405 5.747,6.46451305 C5.635,6.38924252 5.49325,6.28946531 5.32525,6.16693189 C5.1555,6.04614895 5.04525,5.96562699 4.99275,5.92886696 C4.52025,5.59452578 3.836,5.1201464 2.94525,4.50222788 C2.0545,3.88430936 1.52075,3.51495863 1.344,3.38717377 C1.02025,3.1683641 0.71575,2.86728199 0.4305,2.48567791 C0.1435,2.10582432 0,1.74872693 0,1.42138765 C0,1.01527689 0.1085,0.677434755 0.32375,0.406110757 C0.539,0.13478676 0.84875,0 1.2495,0 L12.7505,0 C13.08825,0 13.38225,0.122533418 13.629,0.365849777 C13.8775,0.610916614 14,0.904996817 14,1.24809039 Z M14,3.54646722 L14,9.75190961 C14,10.0950032 13.8775,10.3890834 13.63425,10.6341502 C13.38925,10.8792171 13.09525,11 12.75225,11 L1.25125,11 C0.90825,11 0.61425,10.8774666 0.36925,10.6341502 C0.1225,10.3908339 0.00175,10.0950032 0.00175,9.75190961 L0.00175,3.54646722 C0.231,3.80203692 0.49525,4.0278485 0.791,4.22740293 C2.67575,5.50875239 3.97075,6.40849777 4.67425,6.92313813 C4.97175,7.1419478 5.2115,7.31349459 5.397,7.43427753 C5.58075,7.55681095 5.8275,7.68284532 6.1355,7.80887969 C6.4435,7.93666454 6.72875,7.99968173 6.99475,7.99968173 L7.01225,7.99968173 C7.27825,7.99968173 7.5635,7.93491407 7.8715,7.80887969 C8.1795,7.68109484 8.4245,7.55506047 8.61,7.43427753 C8.79375,7.31349459 9.03525,7.1419478 9.33275,6.92313813 C10.21825,6.2824634 11.515,5.38271801 13.223,4.22740293 C13.51525,4.02259707 13.776,3.79678549 14,3.54646722 Z" id="形状备份-2" fill="#FFFFFF" fill-rule="nonzero"></path>
    </g>
</svg>