<?xml version="1.0" standalone="no"?><!DOCTYPE svg PUBLIC "-//W3C//DTD SVG 1.1//EN" "http://www.w3.org/Graphics/SVG/1.1/DTD/svg11.dtd"><svg t="1597562230705" class="icon" viewBox="0 0 1024 1024" version="1.1" xmlns="http://www.w3.org/2000/svg" p-id="1492" xmlns:xlink="http://www.w3.org/1999/xlink" width="200" height="200"><defs><style type="text/css"></style></defs><path d="M128 275.2l0 480L896 755.2 896 275.2 128 275.2zM844.8 672 659.2 448l185.6-89.6L844.8 672zM179.2 358.4l192 89.6-192 224L179.2 358.4zM512 460.8 211.2 320l601.6 0L512 460.8zM416 467.2 505.6 512c0 0 0 0 0 0C505.6 512 512 512 512 512c0 0 6.4 0 6.4 0 0 0 0 0 0 0l89.6-44.8 198.4 236.8L217.6 704 416 467.2z" fill="#ffffff" p-id="1493"></path></svg>