<?xml version="1.0" standalone="no"?><!DOCTYPE svg PUBLIC "-//W3C//DTD SVG 1.1//EN" "http://www.w3.org/Graphics/SVG/1.1/DTD/svg11.dtd"><svg t="1597562781793" class="icon" viewBox="0 0 1024 1024" version="1.1" xmlns="http://www.w3.org/2000/svg" p-id="2187" xmlns:xlink="http://www.w3.org/1999/xlink" width="200" height="200"><defs><style type="text/css"></style></defs><path d="M1007.4 16.5c-7.2-7.2-18-9.4-27.3-5.4L24.1 423.7c-8.9 3.8-14.8 12.3-15 22-0.3 9.7 5.1 18.3 13.7 22.6l354.6 177.4 180.9 358.9c4.2 8.4 12.8 9.4 22.1 9.4 0.3 0 0.5 0 0.8 0 9.6 0 18.2-1.9 22-10.8l409.5-959.3C1016.7 34.5 1014.6 23.7 1007.4 16.5zM92.8 448.7 913.2 94.5 401.3 603.9 92.8 448.7zM578.5 938.6l-159-317.6L929 114 578.5 938.6z" p-id="2188" fill="#ffffff"></path></svg>