<?xml version="1.0" standalone="no"?><!DOCTYPE svg PUBLIC "-//W3C//DTD SVG 1.1//EN" "http://www.w3.org/Graphics/SVG/1.1/DTD/svg11.dtd"><svg t="1597563781336" class="icon" viewBox="0 0 1024 1024" version="1.1" xmlns="http://www.w3.org/2000/svg" p-id="7514" xmlns:xlink="http://www.w3.org/1999/xlink" width="200" height="200"><defs><style type="text/css"></style></defs><path d="M128 128l0 768 768 0L896 128 128 128zM864 704 640 704l0 160L384 864 384 704 160 704 160 160l704 0L864 704z" p-id="7515" fill="#cdcdcd"></path><path d="M422.4 595.2C428.8 601.6 435.2 601.6 448 601.6c6.4 0 19.2 0 25.6-6.4l332.8-332.8c12.8-12.8 12.8-32 0-44.8-12.8-12.8-32-12.8-44.8 0L448 524.8 288 364.8C275.2 352 256 352 243.2 364.8c-12.8 12.8-12.8 32 0 44.8L422.4 595.2z" p-id="7516" fill="#cdcdcd"></path></svg>