<?xml version="1.0" standalone="no"?><!DOCTYPE svg PUBLIC "-//W3C//DTD SVG 1.1//EN" "http://www.w3.org/Graphics/SVG/1.1/DTD/svg11.dtd"><svg t="1597562210089" class="icon" viewBox="0 0 1024 1024" version="1.1" xmlns="http://www.w3.org/2000/svg" p-id="1183" xmlns:xlink="http://www.w3.org/1999/xlink" width="200" height="200"><defs><style type="text/css"></style></defs><path d="M715.52 128l-85.333333 85.333333H213.333333v597.333334h597.333334v-355.498667l85.333333-85.333333V810.666667a85.333333 85.333333 0 0 1-85.333333 85.333333H213.333333a85.333333 85.333333 0 0 1-85.333333-85.333333V213.333333a85.333333 85.333333 0 0 1 85.333333-85.333333h502.186667z m-225.834667 527.530667l-120.661333 30.165333 30.165333-120.661333L854.314667 109.866667a42.666667 42.666667 0 0 1 60.330666 0l30.165334 30.165333a42.666667 42.666667 0 0 1 0 60.373333L489.685333 655.530667z" fill="#2577E3" p-id="1184"></path></svg>